<mxfile host="app.diagrams.net" modified="2022-08-17T07:58:55.793Z" agent="5.0 (Windows NT 10.0; Win64; x64) AppleWebKit/537.36 (KHTML, like Gecko) Chrome/101.0.0.0 Safari/537.36" etag="beNpY1fvNU2RAt1-am9n" version="17.4.1" type="github">
  <diagram id="9-1AqIw0Cdg3R26cMiT6" name="第 1 页">
    <mxGraphModel dx="1038" dy="556" grid="1" gridSize="10" guides="1" tooltips="1" connect="1" arrows="1" fold="1" page="1" pageScale="1" pageWidth="827" pageHeight="1169" math="0" shadow="0">
      <root>
        <mxCell id="0" />
        <mxCell id="1" parent="0" />
        <mxCell id="5n6dJMcrz5w0t1ewm8di-3" style="edgeStyle=orthogonalEdgeStyle;rounded=0;orthogonalLoop=1;jettySize=auto;html=1;exitX=0.5;exitY=1;exitDx=0;exitDy=0;" edge="1" parent="1" source="5n6dJMcrz5w0t1ewm8di-1" target="5n6dJMcrz5w0t1ewm8di-2">
          <mxGeometry relative="1" as="geometry" />
        </mxCell>
        <mxCell id="5n6dJMcrz5w0t1ewm8di-1" value="开始" style="rounded=1;whiteSpace=wrap;html=1;fillColor=#fff2cc;strokeColor=#d6b656;" vertex="1" parent="1">
          <mxGeometry x="354" y="20" width="86" height="30" as="geometry" />
        </mxCell>
        <mxCell id="5n6dJMcrz5w0t1ewm8di-5" style="edgeStyle=orthogonalEdgeStyle;rounded=0;orthogonalLoop=1;jettySize=auto;html=1;exitX=0.5;exitY=1;exitDx=0;exitDy=0;" edge="1" parent="1" source="5n6dJMcrz5w0t1ewm8di-2" target="5n6dJMcrz5w0t1ewm8di-4">
          <mxGeometry relative="1" as="geometry" />
        </mxCell>
        <mxCell id="5n6dJMcrz5w0t1ewm8di-2" value="获取当前线程" style="rounded=0;whiteSpace=wrap;html=1;fillColor=#fff2cc;strokeColor=#d6b656;" vertex="1" parent="1">
          <mxGeometry x="345.5" y="90" width="103" height="40" as="geometry" />
        </mxCell>
        <mxCell id="5n6dJMcrz5w0t1ewm8di-7" style="edgeStyle=orthogonalEdgeStyle;rounded=0;orthogonalLoop=1;jettySize=auto;html=1;exitX=0.5;exitY=1;exitDx=0;exitDy=0;entryX=0.5;entryY=0;entryDx=0;entryDy=0;" edge="1" parent="1" source="5n6dJMcrz5w0t1ewm8di-4" target="5n6dJMcrz5w0t1ewm8di-6">
          <mxGeometry relative="1" as="geometry" />
        </mxCell>
        <mxCell id="5n6dJMcrz5w0t1ewm8di-4" value="获取当前线程的ThreadLocalMap" style="rounded=0;whiteSpace=wrap;html=1;fillColor=#fff2cc;strokeColor=#d6b656;" vertex="1" parent="1">
          <mxGeometry x="345.5" y="160" width="103" height="40" as="geometry" />
        </mxCell>
        <mxCell id="5n6dJMcrz5w0t1ewm8di-9" style="edgeStyle=orthogonalEdgeStyle;rounded=0;orthogonalLoop=1;jettySize=auto;html=1;exitX=0.5;exitY=1;exitDx=0;exitDy=0;" edge="1" parent="1" source="5n6dJMcrz5w0t1ewm8di-6" target="5n6dJMcrz5w0t1ewm8di-8">
          <mxGeometry relative="1" as="geometry" />
        </mxCell>
        <mxCell id="5n6dJMcrz5w0t1ewm8di-6" value="拿到map之后，用当前对象作为key，去获取对应的value" style="rounded=0;whiteSpace=wrap;html=1;fillColor=#fff2cc;strokeColor=#d6b656;" vertex="1" parent="1">
          <mxGeometry x="339.75" y="230" width="114.5" height="50" as="geometry" />
        </mxCell>
        <mxCell id="5n6dJMcrz5w0t1ewm8di-8" value="结束" style="rounded=1;whiteSpace=wrap;html=1;fillColor=#fff2cc;strokeColor=#d6b656;" vertex="1" parent="1">
          <mxGeometry x="354" y="310" width="86" height="30" as="geometry" />
        </mxCell>
      </root>
    </mxGraphModel>
  </diagram>
</mxfile>
